<?xml version="1.0" encoding="utf-8"?>
<!-- Generator: Adobe Illustrator 13.0.2, SVG Export Plug-In  -->
<!DOCTYPE svg PUBLIC "-//W3C//DTD SVG 1.1//EN" "http://www.w3.org/Graphics/SVG/1.1/DTD/svg11.dtd" [
	<!ENTITY ns_flows "http://ns.adobe.com/Flows/1.0/">
]>
<svg version="1.1"
	 xmlns="http://www.w3.org/2000/svg" xmlns:xlink="http://www.w3.org/1999/xlink" xmlns:a="http://ns.adobe.com/AdobeSVGViewerExtensions/3.0/"
	 x="0px" y="0px" width="451px" height="165px" viewBox="-0.859 -0.51 451 165" enable-background="new -0.859 -0.51 451 165"
	 xml:space="preserve">
<defs>
</defs>
<linearGradient id="SVGID_1_" gradientUnits="userSpaceOnUse" x1="134.814" y1="34.3291" x2="132.09" y2="144.6423">
	<stop  offset="0" style="stop-color:#2B464D"/>
	<stop  offset="0.6047" style="stop-color:#425B64"/>
	<stop  offset="1" style="stop-color:#4C636E"/>
</linearGradient>
<path fill="url(#SVGID_1_)" d="M153.456,83.129h-24.168l-3.368,0.396c-2.179,0.501-4.099,1.216-5.785,2.124
	c-1.376,3.298-4.521,10.22-8.646,15.505c-0.011,0.33-0.03,0.655-0.03,0.994v39.421l0.396,0.397h20.801
	c6.9,0,11.919-1.65,15.056-4.952h0.198c0,2.739,1.783,4.391,5.349,4.952c0.396,0,0.595-0.132,0.595-0.397V83.524L153.456,83.129z
	 M147.711,121.165c0,1.948-0.265,4.062-0.792,6.34c-2.246,5.547-6.67,8.319-13.272,8.319h-15.848v-34.271l0.594-4.555
	c2.08-5.151,6.174-7.728,12.282-7.728h17.037V121.165z"/>
<linearGradient id="SVGID_2_" gradientUnits="userSpaceOnUse" x1="134.2646" y1="50.2324" x2="132.0947" y2="138.1112">
	<stop  offset="0" style="stop-color:#2B464D"/>
	<stop  offset="0.6047" style="stop-color:#425B64"/>
	<stop  offset="1" style="stop-color:#4C636E"/>
</linearGradient>
<path fill="url(#SVGID_2_)" d="M133.646,136.731c0.05,0.001,0.101,0.001,0.152,0.001c6.769,0,11.648-3.062,13.962-8.887l0.026-0.065
	l0.017-0.07c0.54-2.334,0.816-4.513,0.816-6.545V88.363h-17.944c-6.356-0.048-10.96,2.822-13.124,8.294l-0.042,0.107l-0.618,4.729
	v0.059v35.179H133.646z M118.706,101.613l0.57-4.376c2.004-4.761,5.576-7.013,11.398-7.059h16.128v30.986
	c0,1.845-0.249,3.869-0.753,6.066c-2.167,5.178-6.073,7.638-12.403,7.684h-14.94V101.613z"/>
<linearGradient id="SVGID_3_" gradientUnits="userSpaceOnUse" x1="134.8198" y1="34.3291" x2="132.0959" y2="144.6439">
	<stop  offset="0" style="stop-color:#2B464D"/>
	<stop  offset="0.6047" style="stop-color:#425B64"/>
	<stop  offset="1" style="stop-color:#4C636E"/>
</linearGradient>
<path fill="url(#SVGID_3_)" d="M153.832,82.22h-24.599l-0.053,0.007l-3.416,0.4l-0.048,0.012c-1.846,0.41-3.529,0.978-5.048,1.697
	c-0.224,0.568-0.609,1.519-1.136,2.719c1.826-1.146,4.001-2.026,6.563-2.638l3.25-0.382h23.597v56.954
	c-1.432-0.278-2.444-0.757-3.081-1.351c-0.695-0.655-1.037-1.445-1.046-2.628v-0.905h-1.106h-0.391l-0.268,0.281
	c-2.892,3.049-7.627,4.671-14.398,4.672h-20.288v-38.911c0.006-0.806,0.051-1.571,0.114-2.319c-0.619,0.862-1.264,1.694-1.931,2.479
	v39.639l0.929,0.929h21.176c6.285,0.001,11.188-1.344,14.576-4.169c0.255,0.873,0.724,1.648,1.399,2.269
	c1.081,0.995,2.598,1.591,4.487,1.888l0.067,0.013h0.074c0.295-0.005,0.608-0.034,0.948-0.252c0.352-0.211,0.578-0.7,0.555-1.054
	V83.146L153.832,82.22z"/>
<linearGradient id="SVGID_4_" gradientUnits="userSpaceOnUse" x1="172.6714" y1="35.2637" x2="169.9475" y2="145.5761">
	<stop  offset="0" style="stop-color:#2B464D"/>
	<stop  offset="0.6047" style="stop-color:#425B64"/>
	<stop  offset="1" style="stop-color:#4C636E"/>
</linearGradient>
<path fill="url(#SVGID_4_)" d="M160.971,83.328c3.698,0.857,5.547,2.377,5.547,4.556h0.198c3.467-2.906,7.296-4.359,11.489-4.359
	h3.765l0.396,0.396v0.198c-0.694,3.436-2.41,5.152-5.151,5.152c-2.146,0-4.655,1.387-7.527,4.16
	c-1.981,2.806-2.972,6.175-2.972,10.103v38.035l-0.396,0.397c-2.674,0-4.523-1.321-5.546-3.964l-0.198-2.178V83.722L160.971,83.328z
	"/>
<linearGradient id="SVGID_5_" gradientUnits="userSpaceOnUse" x1="172.6675" y1="35.2627" x2="169.9435" y2="145.5774">
	<stop  offset="0" style="stop-color:#2B464D"/>
	<stop  offset="0.6047" style="stop-color:#425B64"/>
	<stop  offset="1" style="stop-color:#4C636E"/>
</linearGradient>
<path fill="url(#SVGID_5_)" d="M159.927,138.332l-0.046-0.12l-0.214-2.345V83.345l0.266-0.267l0.398-0.393l0.355-0.357l0.492,0.114
	c1.929,0.45,3.437,1.072,4.529,1.964l0,0c0.672,0.539,1.17,1.213,1.452,1.967l0,0c3.341-2.489,7.055-3.763,11.048-3.758l0,0h4.14
	l0.927,0.927v0.377v0.291l-0.018,0.087c-0.656,3.639-2.85,5.936-6.04,5.881l0,0c-1.728-0.021-4.068,1.175-6.834,3.842l0,0
	c-1.83,2.63-2.756,5.769-2.757,9.512l0,0v38.412l-0.929,0.929h-0.375c-0.041,0-0.08,0.001-0.121,0.001l0,0
	C163.268,142.874,160.983,141.196,159.927,138.332L159.927,138.332z M165.808,141.032v-37.5c-0.002-4.077,1.038-7.654,3.139-10.627
	l0,0l0.049-0.069l0.062-0.059c2.952-2.836,5.605-4.396,8.16-4.416l0,0c2.168-0.053,3.394-1.072,4.14-3.929l0,0h-3.15
	c-3.98,0.004-7.573,1.36-10.907,4.146l0,0l-0.253,0.21h-0.331h-1.104v-0.905c-0.014-0.824-0.301-1.436-1.056-2.071l0,0
	c-0.65-0.539-1.675-1.033-3.073-1.421l0,0v51.388l0.183,2.004C162.561,139.909,163.792,140.862,165.808,141.032L165.808,141.032z"/>
<linearGradient id="SVGID_6_" gradientUnits="userSpaceOnUse" x1="204.1118" y1="36.0381" x2="201.3878" y2="146.3541">
	<stop  offset="0" style="stop-color:#2B464D"/>
	<stop  offset="0.6047" style="stop-color:#425B64"/>
	<stop  offset="1" style="stop-color:#4C636E"/>
</linearGradient>
<path fill="url(#SVGID_6_)" d="M201.29,83.376h0.743c6.106,0,10.729,1.436,13.866,4.309h0.199c0-2.311,1.699-3.682,5.101-4.111
	h0.149l0.396,0.347v79.092l-0.396,0.397h-0.544c-2.609,0-4.178-1.321-4.705-3.963v-20.108l-0.348-0.345h-16.738
	c-8.717,0-14.347-4.574-16.889-13.72l-0.396-3.566v-19.71c0-8.353,3.566-14.064,10.698-17.137
	C195.066,83.872,198.022,83.376,201.29,83.376z M187.373,104.971v15.799c0,6.636,3.004,10.696,9.014,12.183
	c1.783,0.396,4.226,0.595,7.33,0.595h12.183v-13.521l0.199-12.976l-0.199-0.744l0.199-0.94c0-7.693-1.883-12.513-5.646-14.462
	c-2.543-1.254-5.597-1.881-9.162-1.881c-7.001,0-11.392,2.558-13.173,7.676C187.621,98.912,187.373,101.668,187.373,104.971z"/>
<linearGradient id="SVGID_7_" gradientUnits="userSpaceOnUse" x1="204.1157" y1="36.041" x2="201.3918" y2="146.3537">
	<stop  offset="0" style="stop-color:#2B464D"/>
	<stop  offset="0.6047" style="stop-color:#425B64"/>
	<stop  offset="1" style="stop-color:#4C636E"/>
</linearGradient>
<path fill="url(#SVGID_7_)" d="M215.206,159.625l-0.016-0.085v-19.638h-16.178c-9.062,0.06-15.218-4.97-17.765-14.384l0,0
	l-0.019-0.071l-0.412-3.69l0.003-19.759c-0.045-8.606,3.808-14.812,11.285-17.986l0,0c2.759-1.035,5.826-1.544,9.186-1.544l0,0
	v0.909v0.908c-3.177,0-6.022,0.479-8.508,1.413l0,0c-6.824,2.983-10.104,8.203-10.147,16.301l0,0v19.664l0.383,3.439
	c2.543,8.829,7.642,12.922,15.995,12.982l0,0h17.112l0.879,0.878v20.381c0.553,2.283,1.54,3.08,3.799,3.16l0,0h0.03V84.543
	c-1.35,0.22-2.31,0.612-2.891,1.087l0,0c-0.642,0.536-0.92,1.119-0.938,2.055l0,0v0.908h-0.906h-0.551l-0.262-0.239
	c-2.907-2.667-7.278-4.07-13.25-4.072l0,0h-0.744v-0.906v-0.909h0.744c5.604,0,10.109,1.186,13.407,3.66l0,0
	c0.262-0.746,0.723-1.406,1.363-1.91l0,0c1.05-0.841,2.484-1.314,4.281-1.542l0,0l0.057-0.008h0.057h0.491l0.961,0.842v79.878
	l-0.927,0.932h-0.376h-0.544c-0.062,0.001-0.123,0.001-0.181,0.001l0,0C217.779,164.319,215.7,162.509,215.206,159.625
	L215.206,159.625z M203.716,134.454c-3.144-0.002-5.637-0.198-7.547-0.621l0,0c-6.357-1.501-9.777-6.159-9.706-13.063l0,0v-15.799
	c0.002-3.348,0.25-6.165,0.766-8.47l0,0l0.014-0.057l0.015-0.043c1.888-5.53,6.843-8.337,14.032-8.288l0,0
	c3.669,0,6.867,0.646,9.58,1.983l0,0c4.243,2.229,6.138,7.474,6.134,15.27l0,0v0.093l-0.018,0.093l-0.154,0.729l0.176,0.654
	l-0.201,13.092v14.428H203.716L203.716,134.454z M188.282,120.77c0.072,6.364,2.661,9.831,8.302,11.296l0,0
	c1.675,0.374,4.068,0.573,7.133,0.573l0,0h11.275V120.01l0.197-12.848l-0.224-0.83l0.046-0.212l0.179-0.846
	c-0.016-7.532-1.887-11.9-5.141-13.557l0,0c-2.39-1.178-5.3-1.786-8.759-1.786l0,0c-6.793,0.048-10.616,2.344-12.3,7.021l0,0
	c-0.468,2.11-0.71,4.789-0.708,8.018l0,0V120.77L188.282,120.77z"/>
<linearGradient id="SVGID_8_" gradientUnits="userSpaceOnUse" x1="251.6245" y1="37.2144" x2="248.9006" y2="147.527">
	<stop  offset="0" style="stop-color:#2B464D"/>
	<stop  offset="0.6047" style="stop-color:#425B64"/>
	<stop  offset="1" style="stop-color:#4C636E"/>
</linearGradient>
<path fill="url(#SVGID_8_)" d="M228.863,83.328c3.83,0.528,5.746,2.245,5.746,5.15v32.093c0,8.057,2.507,12.811,7.526,14.264
	c2.08,0.926,4.128,1.387,6.141,1.387c11.094,0,16.641-4.49,16.641-13.47V83.722l0.396-0.395c3.369,0,5.218,2.245,5.547,6.735v51.506
	l-0.394,0.397c-3.104,0-4.954-1.716-5.549-5.151v-0.198c-2.971,3.566-7.131,5.35-12.479,5.35h-4.162
	c-9.21,0-15.286-3.765-18.225-11.293c-0.924-2.245-1.387-4.622-1.387-7.131v-39.82l0.198-0.198V83.328z"/>
<linearGradient id="SVGID_9_" gradientUnits="userSpaceOnUse" x1="251.6235" y1="37.2129" x2="248.8996" y2="147.5276">
	<stop  offset="0" style="stop-color:#2B464D"/>
	<stop  offset="0.6047" style="stop-color:#425B64"/>
	<stop  offset="1" style="stop-color:#4C636E"/>
</linearGradient>
<path fill="url(#SVGID_9_)" d="M264.385,138.517c-3.042,2.909-7.093,4.368-11.947,4.357l0,0h-4.162
	c-9.445,0.046-16.044-4.001-19.064-11.854l0,0c-0.97-2.355-1.455-4.857-1.455-7.478l0,0V83.345l0.198-0.197v-0.862l1.033,0.141
	c2.019,0.28,3.636,0.877,4.789,1.908l0,0c1.161,1.025,1.749,2.496,1.739,4.143l0,0l-0.002,32.093
	c0.043,7.928,2.381,12.079,6.872,13.394l0,0l0.057,0.014l0.059,0.025c1.983,0.882,3.9,1.31,5.774,1.31l0,0
	c5.432,0.003,9.377-1.11,11.908-3.168l0,0c2.525-2.051,3.811-5.078,3.822-9.394l0,0V83.345l0.928-0.928h0.378
	c1.876-0.013,3.519,0.671,4.614,2.017l0,0c1.097,1.339,1.663,3.209,1.841,5.561l0,0v0.023v51.926l-0.93,0.93h-0.376
	c-0.059,0.001-0.115,0.001-0.173,0.001l0,0C267.413,142.875,265.289,141.237,264.385,138.517L264.385,138.517z M229.572,123.542
	c0,2.398,0.44,4.65,1.325,6.802l0,0c2.851,7.188,8.403,10.665,17.379,10.715l0,0h4.162c5.151-0.015,8.979-1.678,11.781-5.023l0,0
	l1.604-1.931v2.513v0.107c0.604,2.918,1.769,4.097,4.128,4.304l0,0V90.104c-0.155-2.125-0.68-3.615-1.428-4.516l0,0
	c-0.662-0.791-1.492-1.228-2.698-1.329l0,0v38.492c0.012,4.663-1.477,8.374-4.497,10.808l0,0c-3.016,2.435-7.39,3.569-13.052,3.57
	l0,0c-2.133,0-4.292-0.488-6.449-1.438l0,0c-5.506-1.612-8.171-6.964-8.128-15.12l0,0V88.478c-0.01-1.258-0.378-2.1-1.134-2.79l0,0
	c-0.638-0.577-1.625-1.039-2.993-1.319l0,0V123.542L229.572,123.542z"/>
<linearGradient id="SVGID_10_" gradientUnits="userSpaceOnUse" x1="282.1157" y1="37.9673" x2="279.3918" y2="148.2789">
	<stop  offset="0" style="stop-color:#2B464D"/>
	<stop  offset="0.6047" style="stop-color:#425B64"/>
	<stop  offset="1" style="stop-color:#4C636E"/>
</linearGradient>
<path fill="url(#SVGID_10_)" d="M277.831,56.385c3.965,0,5.944,2.444,5.944,7.329v3.962c0,0.265-0.199,0.396-0.593,0.396
	c-2.445,0-4.161-1.253-5.153-3.764l-0.396-1.782v-5.746l0.197-0.198V56.385z M278.029,83.328h0.595c2.838,0,4.49,1.916,4.952,5.745
	v52.496c0,0.266-0.198,0.397-0.592,0.397c-2.477,0-4.195-1.452-5.153-4.359l-0.197-1.981V83.722L278.029,83.328z"/>
<linearGradient id="SVGID_11_" gradientUnits="userSpaceOnUse" x1="282.1089" y1="37.9683" x2="279.385" y2="148.2801">
	<stop  offset="0" style="stop-color:#2B464D"/>
	<stop  offset="0.6047" style="stop-color:#425B64"/>
	<stop  offset="1" style="stop-color:#4C636E"/>
</linearGradient>
<path fill="url(#SVGID_11_)" d="M276.967,137.892l-0.029-0.095l-0.215-2.135V83.346l0.27-0.268l0.396-0.395l0.265-0.265h0.376
	l0.595-0.001c1.619-0.011,3.062,0.586,4.054,1.754l0,0c0.996,1.157,1.553,2.772,1.799,4.792l0,0l0.008,0.059l-0.004,52.547
	c0.023,0.354-0.195,0.841-0.55,1.054l0,0c-0.339,0.218-0.654,0.247-0.95,0.251l0,0c-0.031,0-0.062,0-0.094,0l0,0
	C280.055,142.873,277.927,140.974,276.967,137.892L276.967,137.892z M282.666,141.042V89.12c-0.22-1.778-0.713-3.018-1.363-3.764
	l0,0c-0.66-0.75-1.457-1.107-2.679-1.12l0,0h-0.082v51.353l0.181,1.819C279.617,139.902,280.799,140.909,282.666,141.042
	L282.666,141.042z M277.183,64.642l-0.025-0.068l-0.435-1.945v-6.225l0.201-0.198v-0.729h0.906c2.156-0.011,3.982,0.698,5.165,2.168
	l0,0c1.177,1.466,1.685,3.512,1.687,6.07l0,0v3.962c0.021,0.353-0.202,0.845-0.553,1.053l0,0c-0.341,0.217-0.655,0.248-0.947,0.25
	l0,0c-0.039,0-0.074,0-0.109,0l0,0C280.345,68.98,278.207,67.362,277.183,64.642L277.183,64.642z M282.865,67.151v-3.437
	c0.004-2.327-0.479-3.945-1.284-4.925l0,0c-0.688-0.839-1.635-1.333-3.041-1.463l0,0v5.099l0.358,1.604
	C279.791,66.141,280.959,67.03,282.865,67.151L282.865,67.151z"/>
<linearGradient id="SVGID_12_" gradientUnits="userSpaceOnUse" x1="305.1216" y1="38.5347" x2="302.3977" y2="148.8467">
	<stop  offset="0" style="stop-color:#2B464D"/>
	<stop  offset="0.6047" style="stop-color:#425B64"/>
	<stop  offset="1" style="stop-color:#4C636E"/>
</linearGradient>
<path fill="url(#SVGID_12_)" d="M290.943,56.385c3.832,0,5.745,2.113,5.745,6.339v59.035c0,7.001,2.576,11.489,7.726,13.47
	c0,0.463,2.973,0.86,8.915,1.189c2.244,1.157,3.367,2.94,3.367,5.35l-0.197,0.198h-7.528c-8.648,0-14.46-4.359-17.434-13.075
	c-0.658-2.443-0.989-5.019-0.989-7.726V56.781L290.943,56.385z"/>
<linearGradient id="SVGID_13_" gradientUnits="userSpaceOnUse" x1="305.1177" y1="38.5361" x2="302.3938" y2="148.8484">
	<stop  offset="0" style="stop-color:#2B464D"/>
	<stop  offset="0.6047" style="stop-color:#425B64"/>
	<stop  offset="1" style="stop-color:#4C636E"/>
</linearGradient>
<path fill="url(#SVGID_13_)" d="M290.662,129.129c-0.684-2.525-1.024-5.184-1.024-7.964l0,0V56.404l0.267-0.266l0.397-0.396
	l0.266-0.265h0.376c2.07-0.008,3.811,0.587,4.979,1.882l0,0c1.167,1.292,1.674,3.125,1.674,5.365l0,0v59.035
	c0.045,6.808,2.381,10.755,7.145,12.623l0,0l0.578,0.225v0.113c0.307,0.077,0.801,0.169,1.442,0.254l0,0
	c1.443,0.192,3.658,0.375,6.616,0.54l0,0l0.193,0.009l0.173,0.088c2.488,1.243,3.893,3.457,3.857,6.157l0,0v0.375l-0.261,0.265
	l-0.464,0.467h-7.906c-0.047,0-0.094,0-0.143,0l0,0C299.928,142.874,293.665,138.121,290.662,129.129L290.662,129.129z
	 M291.455,121.165c0,2.633,0.319,5.128,0.943,7.434l0,0c2.937,8.446,8.243,12.406,16.572,12.459l0,0h6.772
	c-0.194-1.668-1.009-2.815-2.671-3.745l0,0c-2.514-0.141-4.489-0.296-5.942-0.463l0,0c-1.523-0.197-2.365-0.305-3.044-0.672l0,0
	c-0.071-0.044-0.171-0.11-0.271-0.208l0,0c-5.359-2.154-8.08-7.136-8.035-14.211l0,0V62.724c0-1.986-0.451-3.323-1.202-4.144l0,0
	c-0.67-0.738-1.649-1.185-3.123-1.271l0,0V121.165L291.455,121.165z"/>
<linearGradient id="SVGID_14_" gradientUnits="userSpaceOnUse" x1="330.0894" y1="39.1523" x2="327.3655" y2="149.4635">
	<stop  offset="0" style="stop-color:#2B464D"/>
	<stop  offset="0.6047" style="stop-color:#425B64"/>
	<stop  offset="1" style="stop-color:#4C636E"/>
</linearGradient>
<path fill="url(#SVGID_14_)" d="M315.926,56.385c3.828,0,5.743,2.113,5.743,6.339v59.035c0,7.001,2.576,11.489,7.728,13.47
	c0,0.463,2.971,0.86,8.915,1.189c2.245,1.157,3.367,2.94,3.367,5.35l-0.199,0.198h-7.528c-8.648,0-14.46-4.359-17.432-13.075
	c-0.66-2.443-0.989-5.019-0.989-7.726V56.781L315.926,56.385z"/>
<linearGradient id="SVGID_15_" gradientUnits="userSpaceOnUse" x1="330.0845" y1="39.1519" x2="327.3605" y2="149.465">
	<stop  offset="0" style="stop-color:#2B464D"/>
	<stop  offset="0.6047" style="stop-color:#425B64"/>
	<stop  offset="1" style="stop-color:#4C636E"/>
</linearGradient>
<path fill="url(#SVGID_15_)" d="M315.643,129.127c-0.684-2.523-1.024-5.18-1.024-7.962l0,0v-64.76l0.269-0.267l0.397-0.395
	l0.264-0.266h0.378c2.068-0.008,3.811,0.587,4.979,1.882l0,0c1.167,1.293,1.672,3.125,1.672,5.364l0,0v59.036
	c0.045,6.808,2.383,10.757,7.145,12.624l0,0l0.58,0.223v0.115c0.307,0.076,0.799,0.168,1.442,0.253l0,0
	c1.441,0.194,3.658,0.375,6.614,0.54l0,0l0.193,0.009l0.175,0.088c2.488,1.243,3.893,3.457,3.857,6.157l0,0v0.375l-0.263,0.265
	l-0.466,0.467h-7.904c-0.049,0-0.098,0-0.146,0l0,0C324.91,142.874,318.646,138.117,315.643,129.127L315.643,129.127z
	 M316.436,121.165c0,2.633,0.32,5.128,0.943,7.434l0,0c2.938,8.446,8.245,12.406,16.572,12.46l0,0h6.772
	c-0.192-1.667-1.009-2.814-2.669-3.746l0,0c-2.514-0.141-4.491-0.294-5.942-0.463l0,0c-1.523-0.197-2.369-0.305-3.046-0.672l0,0
	c-0.071-0.044-0.173-0.108-0.271-0.206l0,0c-5.357-2.156-8.077-7.138-8.035-14.213l0,0V62.723c0-1.985-0.451-3.322-1.202-4.145l0,0
	c-0.67-0.736-1.651-1.183-3.123-1.269l0,0V121.165L316.436,121.165z"/>
<linearGradient id="SVGID_16_" gradientUnits="userSpaceOnUse" x1="348.6343" y1="39.6099" x2="345.9104" y2="149.9214">
	<stop  offset="0" style="stop-color:#2B464D"/>
	<stop  offset="0.6047" style="stop-color:#425B64"/>
	<stop  offset="1" style="stop-color:#4C636E"/>
</linearGradient>
<path fill="url(#SVGID_16_)" d="M344.391,56.385c3.961,0,5.942,2.444,5.942,7.329v3.962c0,0.265-0.199,0.396-0.595,0.396
	c-2.443,0-4.159-1.253-5.149-3.764l-0.397-1.782v-5.746l0.199-0.198V56.385z M344.589,83.328h0.595c2.839,0,4.488,1.916,4.95,5.745
	v52.496c0,0.266-0.196,0.397-0.594,0.397c-2.477,0-4.191-1.452-5.149-4.359l-0.199-1.981V83.722L344.589,83.328z"/>
<linearGradient id="SVGID_17_" gradientUnits="userSpaceOnUse" x1="348.6304" y1="39.6104" x2="345.9064" y2="149.9233">
	<stop  offset="0" style="stop-color:#2B464D"/>
	<stop  offset="0.6047" style="stop-color:#425B64"/>
	<stop  offset="1" style="stop-color:#4C636E"/>
</linearGradient>
<path fill="url(#SVGID_17_)" d="M343.526,137.892l-0.029-0.095l-0.212-2.127V83.345l0.265-0.267l0.397-0.394l0.265-0.266h0.378
	h0.595c1.617-0.012,3.062,0.585,4.053,1.751l0,0c0.995,1.159,1.555,2.775,1.798,4.793l0,0l0.008,0.059l-0.002,52.548
	c0.023,0.353-0.198,0.84-0.552,1.052l0,0c-0.339,0.218-0.654,0.248-0.948,0.253l0,0c-0.031,0-0.062,0-0.092,0l0,0
	C346.616,142.874,344.487,140.975,343.526,137.892L343.526,137.892z M349.227,141.042V89.135c-0.221-1.786-0.716-3.029-1.364-3.779
	l0,0c-0.662-0.748-1.459-1.108-2.679-1.12l0,0H345.1v51.35l0.182,1.818C346.173,139.9,347.358,140.909,349.227,141.042
	L349.227,141.042z M343.744,64.642l-0.026-0.064l-0.433-1.95v-6.225l0.198-0.199v-0.726h0.906c2.156-0.014,3.982,0.697,5.161,2.167
	l0,0c1.181,1.463,1.689,3.511,1.691,6.069l0,0v3.964c0.021,0.351-0.203,0.841-0.556,1.052l0,0c-0.341,0.216-0.654,0.245-0.947,0.249
	l0,0c-0.035,0.001-0.071,0.001-0.108,0.001l0,0C346.905,68.98,344.765,67.362,343.744,64.642L343.744,64.642z M349.423,67.152
	v-3.438c0.004-2.329-0.481-3.946-1.282-4.925l0,0c-0.689-0.838-1.637-1.333-3.041-1.463l0,0v5.099l0.356,1.607
	C346.351,66.141,347.518,67.029,349.423,67.152L349.423,67.152z"/>
<linearGradient id="SVGID_18_" gradientUnits="userSpaceOnUse" x1="380.3101" y1="40.3921" x2="377.5862" y2="150.7044">
	<stop  offset="0" style="stop-color:#2B464D"/>
	<stop  offset="0.6047" style="stop-color:#425B64"/>
	<stop  offset="1" style="stop-color:#4C636E"/>
</linearGradient>
<path fill="url(#SVGID_18_)" d="M374.937,83.129h24.167l0.396,0.396v58.044c0,0.266-0.197,0.397-0.595,0.397
	c-3.563-0.562-5.348-2.213-5.348-4.952h-0.199c-3.137,3.302-8.153,4.952-15.055,4.952h-20.8l-0.396-0.397v-39.421
	c0-10.204,4.82-16.409,14.462-18.623L374.937,83.129z M363.446,101.553v34.271h15.848c6.604,0,11.027-2.772,13.273-8.319
	c0.528-2.278,0.791-4.392,0.791-6.34V89.271h-17.034c-6.109,0-10.201,2.576-12.282,7.728L363.446,101.553z"/>
<linearGradient id="SVGID_19_" gradientUnits="userSpaceOnUse" x1="380.3081" y1="40.3906" x2="377.5841" y2="150.705">
	<stop  offset="0" style="stop-color:#2B464D"/>
	<stop  offset="0.6047" style="stop-color:#425B64"/>
	<stop  offset="1" style="stop-color:#4C636E"/>
</linearGradient>
<path fill="url(#SVGID_19_)" d="M398.832,142.874l-0.068-0.011c-1.888-0.299-3.404-0.895-4.485-1.89l0,0
	c-0.676-0.618-1.146-1.396-1.398-2.269l0,0c-3.387,2.825-8.291,4.169-14.576,4.169l0,0h-21.178l-0.928-0.93v-39.797
	c-0.074-10.494,5.196-17.295,15.166-19.507l0,0l0.043-0.01l3.423-0.403l0.053-0.006h24.598l0.928,0.927v58.421
	c0.021,0.353-0.199,0.84-0.552,1.053l0,0c-0.341,0.218-0.656,0.247-0.951,0.252l0,0H398.832L398.832,142.874z M378.303,141.059
	c6.771-0.004,11.505-1.623,14.398-4.672l0,0l0.265-0.281h0.392h1.107v0.908c0.01,1.177,0.349,1.969,1.046,2.625l0,0
	c0.635,0.595,1.646,1.07,3.078,1.351l0,0V84.037h-23.598l-3.266,0.382c-9.282,2.222-13.637,7.831-13.713,17.729l0,0v38.911H378.303
	L378.303,141.059z M379.293,136.731h-16.758v-35.181v-0.057l0.62-4.73l0.042-0.106c2.165-5.472,6.769-8.343,13.124-8.294l0,0h17.944
	v32.802c0,2.032-0.274,4.211-0.816,6.543l0,0l-0.018,0.073l-0.023,0.064c-2.314,5.823-7.189,8.887-13.958,8.887l0,0
	C379.401,136.732,379.348,136.731,379.293,136.731L379.293,136.731z M364.354,134.917h14.939c6.334-0.046,10.242-2.512,12.407-7.696
	l0,0c0.502-2.192,0.75-4.212,0.748-6.056l0,0V90.177h-16.127c-5.821,0.048-9.393,2.296-11.397,7.057l0,0l-0.57,4.378V134.917
	L364.354,134.917z"/>
<linearGradient id="SVGID_20_" gradientUnits="userSpaceOnUse" x1="429.0757" y1="41.5972" x2="426.3518" y2="151.9072">
	<stop  offset="0" style="stop-color:#2B464D"/>
	<stop  offset="0.6047" style="stop-color:#425B64"/>
	<stop  offset="1" style="stop-color:#4C636E"/>
</linearGradient>
<path fill="url(#SVGID_20_)" d="M406.619,83.328c3.7,0,5.549,1.518,5.549,4.556c3.104-3.038,8.057-4.556,14.856-4.556h1.387
	c9.312,0,15.519,3.698,18.622,11.093c0.924,2.643,1.388,5.943,1.388,9.905v37.242c0,0.266-0.199,0.397-0.595,0.397
	c-3.137,0-4.987-2.048-5.547-6.142v-33.479c0-8.718-4.889-13.075-14.661-13.075h-1.979c-8.981,0-13.471,4.953-13.471,14.858v37.439
	c0,0.266-0.199,0.397-0.595,0.397c-3.037,0-4.821-1.85-5.348-5.547V83.722L406.619,83.328z"/>
<linearGradient id="SVGID_21_" gradientUnits="userSpaceOnUse" x1="429.0708" y1="41.5962" x2="426.3469" y2="151.9085">
	<stop  offset="0" style="stop-color:#2B464D"/>
	<stop  offset="0.6047" style="stop-color:#425B64"/>
	<stop  offset="1" style="stop-color:#4C636E"/>
</linearGradient>
<path fill="url(#SVGID_21_)" d="M443.413,141.038c-1.099-1.22-1.737-2.937-2.034-5.089l0,0l-0.01-0.069v-33.536
	c-0.008-4.201-1.159-7.158-3.36-9.128l0,0c-2.206-1.974-5.629-3.039-10.391-3.039l0,0l-1.979,0.002
	c-4.337,0.006-7.399,1.178-9.432,3.416l0,0c-2.036,2.241-3.131,5.708-3.131,10.534l0,0l-0.002,37.439
	c0.023,0.354-0.201,0.843-0.552,1.054l0,0c-0.341,0.217-0.654,0.247-0.949,0.252l0,0c-1.696,0.009-3.198-0.543-4.271-1.665l0,0
	c-1.073-1.118-1.696-2.699-1.978-4.662l0,0l-0.01-0.069V83.345l0.266-0.265l0.397-0.397l0.267-0.265h0.374
	c1.964,0.001,3.569,0.394,4.736,1.345l0,0c0.738,0.599,1.231,1.406,1.494,2.343l0,0c3.344-2.504,8.098-3.687,14.175-3.688l0,0h1.387
	c9.535-0.042,16.253,3.916,19.478,11.702l0,0c0.97,2.777,1.438,6.172,1.438,10.206l0,0v37.242c0.023,0.352-0.2,0.841-0.553,1.053
	l0,0c-0.339,0.218-0.655,0.248-0.949,0.253l0,0c-0.016,0-0.031,0-0.047,0l0,0C446.036,142.874,444.494,142.254,443.413,141.038
	L443.413,141.038z M408.612,139.947c0.652,0.67,1.473,1.04,2.647,1.103l0,0v-36.921c0-5.081,1.147-9.041,3.601-11.754l0,0
	c2.457-2.714,6.132-4.021,10.778-4.012l0,0h1.979c5.013,0,8.92,1.111,11.601,3.498l0,0c2.683,2.389,3.975,5.968,3.969,10.482l0,0
	v33.426c0.267,1.903,0.828,3.235,1.572,4.051l0,0c0.695,0.758,1.543,1.16,2.749,1.229l0,0l0.004-36.724
	c0-3.891-0.46-7.097-1.317-9.556l0,0c-3.002-7.056-8.699-10.493-17.784-10.535l0,0h-1.387c-6.68-0.002-11.373,1.499-14.222,4.294
	l0,0l-1.543,1.51v-2.157c-0.012-1.348-0.38-2.148-1.058-2.717l0,0c-0.612-0.508-1.617-0.856-3.068-0.92l0,0v52.122
	C407.386,138.061,407.911,139.228,408.612,139.947L408.612,139.947z"/>
<radialGradient id="SVGID_22_" cx="7.5635" cy="1660.6504" r="78.0168" gradientTransform="matrix(0.5842 0 0 0.0883 55.2757 -5.8574)" gradientUnits="userSpaceOnUse">
	<stop  offset="0" style="stop-color:#6D963E"/>
	<stop  offset="0.1372" style="stop-color:#93B170"/>
	<stop  offset="0.2788" style="stop-color:#B3C99B"/>
	<stop  offset="0.4226" style="stop-color:#CFDCBF"/>
	<stop  offset="0.5665" style="stop-color:#E4EBDB"/>
	<stop  offset="0.7104" style="stop-color:#F3F6EF"/>
	<stop  offset="0.8547" style="stop-color:#FCFDFB"/>
	<stop  offset="1" style="stop-color:#FFFFFF"/>
</radialGradient>
<path opacity="0.41" fill="url(#SVGID_22_)" d="M105.275,140.825c0,3.807-20.408,6.892-45.582,6.892
	c-25.175,0-45.582-3.085-45.582-6.892c0-3.803,20.407-6.889,45.582-6.889C84.867,133.937,105.275,137.022,105.275,140.825z"/>
<linearGradient id="SVGID_23_" gradientUnits="userSpaceOnUse" x1="38.1196" y1="119.1562" x2="85.4703" y2="-1.2493">
	<stop  offset="0" style="stop-color:#2B464D"/>
	<stop  offset="0.6047" style="stop-color:#425B64"/>
	<stop  offset="1" style="stop-color:#4C636E"/>
</linearGradient>
<path fill="url(#SVGID_23_)" d="M60.916,0C27.326,0,0,27.326,0,60.916c0,34.455,27.896,63.564,60.916,63.564
	c33.02,0,60.917-29.109,60.917-63.564C121.833,27.326,94.506,0,60.916,0z"/>
<path fill="#FCFDFF" d="M118.835,88.606c-0.063,0.138-0.129,0.277-0.194,0.419C118.706,88.885,118.772,88.747,118.835,88.606z"/>
<path fill="#FCFDFF" d="M117.527,91.325c-0.093,0.186-0.189,0.373-0.286,0.562C117.338,91.7,117.432,91.514,117.527,91.325z"/>
<path fill="#CCD584" d="M12.491,66.326c0,25.741,20.867,49.333,46.609,49.333c25.741,0,46.608-23.592,46.608-49.333
	c0-25.743-20.867-46.61-46.608-46.61C33.358,19.716,12.491,40.583,12.491,66.326z"/>
<radialGradient id="SVGID_24_" cx="-7.2466" cy="125.0527" r="134.9876" gradientTransform="matrix(0.7505 0 0 0.7505 54.4937 -6.361)" gradientUnits="userSpaceOnUse">
	<stop  offset="0" style="stop-color:#FFFFFF"/>
	<stop  offset="0.2218" style="stop-color:#FCFDF6"/>
	<stop  offset="0.5765" style="stop-color:#F4F7DF"/>
	<stop  offset="1" style="stop-color:#E7EEBB"/>
</radialGradient>
<path fill="url(#SVGID_24_)" d="M15.995,68.429c0,23.225,18.828,44.777,42.054,44.777c23.225,0,42.053-21.553,42.053-44.777
	c0-23.226-18.828-42.053-42.053-42.053C34.823,26.375,15.995,45.203,15.995,68.429z"/>
<path fill="#F7FAEF" d="M61.455,76.179c14.378-8.512,22.392-4.91,22.392-4.91c7.647,4.42,4.469,12.741,4.469,12.741
	C79.859,109.29,59.77,96.292,59.77,96.292S57.1,94.72,55.75,93.497C53.285,82.726,57.614,78.452,61.455,76.179z"/>
<path fill="#F7FAEF" d="M43.061,79.633c-10.341-8.636-17.185-6.805-17.185-6.805c-6.659,2.528-5.207,9.562-5.207,9.562
	c3.459,21.216,21.131,13.47,21.131,13.47s2.328-0.906,3.56-1.706C48.717,85.902,45.824,81.939,43.061,79.633z"/>
<path fill="#DFE677" d="M86.62,74.7c0,0,4.583,19.277-15.021,20.245c0,0-7.666,0.241-14.735-1.118L86.62,74.7z"/>
<path fill="#DFE677" d="M22.545,77.653c0,0-5.062,14.247,10.721,16.034c0,0,4.995,0.589,11.418,0.401L22.545,77.653z"/>
<linearGradient id="SVGID_25_" gradientUnits="userSpaceOnUse" x1="34.1133" y1="99.2207" x2="34.1133" y2="48.831">
	<stop  offset="0" style="stop-color:#2D3638"/>
	<stop  offset="0.2708" style="stop-color:#38454B"/>
	<stop  offset="0.7271" style="stop-color:#465B64"/>
	<stop  offset="1" style="stop-color:#4C636E"/>
</linearGradient>
<path fill="url(#SVGID_25_)" d="M22.683,77.202l0.502,0.048c9.021,1.426,14.16,2.267,16.53,3.644
	c4.867,2.828,6.808,6.951,6.016,12.062c-0.133,0.844-0.481,1.224-1.046,1.134l-8.46-1.313c-10.433-1.619-14.995-6.663-13.679-15.122
	L22.683,77.202z"/>
<linearGradient id="SVGID_26_" gradientUnits="userSpaceOnUse" x1="71.21" y1="99.2227" x2="71.21" y2="48.8296">
	<stop  offset="0" style="stop-color:#2D3638"/>
	<stop  offset="0.2708" style="stop-color:#38454B"/>
	<stop  offset="0.7271" style="stop-color:#465B64"/>
	<stop  offset="1" style="stop-color:#4C636E"/>
</linearGradient>
<path fill="url(#SVGID_26_)" d="M86.62,74.7l-0.642,0.007c-11.618,0.855-18.236,1.376-21.396,2.873
	c-6.485,3.077-9.391,8.116-8.923,14.688c0.077,1.092,0.479,1.61,1.206,1.559l10.888-0.772c13.436-0.952,19.766-6.877,18.996-17.767
	L86.62,74.7z"/>
<linearGradient id="SVGID_27_" gradientUnits="userSpaceOnUse" x1="48.9629" y1="101.2031" x2="49.6436" y2="70.5712">
	<stop  offset="0" style="stop-color:#2B464D"/>
	<stop  offset="0.6047" style="stop-color:#425B64"/>
	<stop  offset="1" style="stop-color:#4C636E"/>
</linearGradient>
<path fill="url(#SVGID_27_)" d="M47.94,100.705l0.081,0.023l1.51-0.838l0.412-0.364c0.516-0.628,0.595-1.261,0.239-1.905
	c-0.059-0.104-0.121-0.136-0.191-0.098l-1.042,0.577c-1.284,0.714-1.64,1.591-1.061,2.632L47.94,100.705z"/>
<linearGradient id="SVGID_28_" gradientUnits="userSpaceOnUse" x1="53.1318" y1="101.2969" x2="53.8128" y2="70.6519">
	<stop  offset="0" style="stop-color:#2B464D"/>
	<stop  offset="0.6047" style="stop-color:#425B64"/>
	<stop  offset="1" style="stop-color:#4C636E"/>
</linearGradient>
<path fill="url(#SVGID_28_)" d="M52.084,97.492c-0.595,1.033-0.254,1.917,1.019,2.651l1.032,0.593
	c0.068,0.041,0.133,0.01,0.193-0.093c0.365-0.638,0.297-1.272-0.207-1.909l-0.406-0.37L52.217,97.5l-0.081,0.02L52.084,97.492z"/>
</svg>
